<svg width="742" height="249" viewBox="0 0 742 249" fill="none" xmlns="http://www.w3.org/2000/svg">
<g opacity="0.8">
<path d="M3.53622 107.419C3.53622 107.419 48.0127 92.0849 131.669 116.839C131.669 116.839 157.922 135.07 188.61 137.677C219.299 140.284 252.32 129.719 320.318 104.912C388.315 80.1043 414.572 134.244 419.801 137.986C425.029 141.728 450.454 165.899 497.651 122.822C544.847 79.7445 518.13 85.9869 596.535 45.1015C596.535 45.1015 628.136 19.5495 717.391 0.988792" stroke="url(#paint0_linear_2_3918)" stroke-miterlimit="10"/>
<path d="M3.80773 112.818C3.80773 112.818 44.5261 104.966 131.333 121.833C131.406 121.83 133.189 123.08 136.373 124.879C145.76 130.167 165.899 140.158 188.219 141.948C219.802 144.453 252.621 133.704 319.271 109.415C365.184 92.6835 392.612 110.948 406.78 125.919C413.511 133.039 417.463 139.495 419.413 140.88C425.153 144.971 450.581 168.696 497.472 126.294C544.362 83.8919 520.504 89.5662 596.853 50.2265C597.336 50.1613 605.393 43.8332 624.33 35.3677C643.626 26.7257 674.923 15.8285 717.34 7.00699" stroke="url(#paint1_linear_2_3918)" stroke-miterlimit="10"/>
<path d="M4.07801 118.195C4.07801 118.195 44.4004 110.292 130.99 126.807C131.144 126.835 132.905 128.041 136.065 129.744C145.789 134.984 165.838 144.53 187.825 146.187C220.306 148.642 252.932 137.643 318.17 113.905C364.005 97.2133 391.994 114.431 406.084 128.926C412.734 135.753 416.752 142.201 418.93 143.744C425.154 148.183 450.62 171.461 497.199 129.75C543.894 87.9665 522.777 93.1399 597.07 55.3409C598.037 55.2104 606.129 49.0596 624.597 40.94C644.102 32.3539 676.619 21.4466 717.208 13.0136" stroke="url(#paint2_linear_2_3918)" stroke-miterlimit="10"/>
<path d="M4.34824 123.583C4.34824 123.583 44.2749 115.634 130.652 131.786C130.875 131.826 132.621 133.012 135.748 134.599C145.824 139.791 165.803 148.879 187.43 150.417C220.808 152.786 253.218 141.608 317.066 118.359C362.836 101.707 391.373 117.885 405.408 131.947C411.973 138.518 416.06 144.885 418.468 146.636C425.189 151.414 450.674 174.257 496.947 133.241C543.388 92.1148 525.078 96.7431 597.308 60.4901C598.758 60.2945 606.893 54.3206 624.878 46.5372C644.605 38.0013 678.336 27.1046 717.058 19.0519" stroke="url(#paint3_linear_2_3918)" stroke-miterlimit="10"/>
<path d="M4.61847 128.971C4.61847 128.971 44.1425 120.97 130.309 136.765C130.612 136.821 132.37 137.976 135.433 139.494C145.866 144.633 165.717 153.272 187.044 154.692C221.311 156.976 253.518 145.608 315.972 122.87C361.677 106.251 390.762 121.394 404.748 134.998C411.226 141.322 415.344 147.627 418.02 149.534C425.226 154.67 450.74 177.046 496.722 136.736C542.91 96.2668 527.399 100.35 597.579 65.6377C599.507 65.3772 607.684 59.5904 625.192 52.143C645.136 43.6576 680.08 32.7563 716.961 25.0876" stroke="url(#paint4_linear_2_3918)" stroke-miterlimit="10"/>
<path d="M4.88989 134.359C4.88989 134.359 44.0115 126.311 129.946 141.749C130.33 141.817 132.06 142.937 135.099 144.37C145.903 149.454 165.643 157.639 186.632 158.948C221.801 161.14 253.798 149.578 314.865 127.36C360.506 110.79 390.132 124.883 404.081 138.029C410.478 144.06 414.654 150.342 417.579 152.42C425.282 157.9 450.83 179.875 496.486 140.241C542.413 100.429 529.716 103.973 597.833 70.7958C600.244 70.4752 608.47 64.8701 625.488 57.7542C645.661 49.3187 681.813 38.4232 716.832 31.1396" stroke="url(#paint5_linear_2_3918)" stroke-miterlimit="10"/>
<path d="M5.16042 139.747C5.16042 139.747 43.8669 131.665 129.63 146.727C130.08 146.807 131.809 147.897 134.804 149.245C145.998 154.268 165.634 161.978 186.272 163.197C222.343 165.292 254.124 153.547 313.81 131.848C359.38 115.318 389.546 128.365 403.433 141.059C409.723 146.82 413.977 153.051 417.144 155.312C425.318 161.137 450.895 182.64 496.246 143.701C541.919 104.547 532.029 107.55 598.083 75.9195C600.977 75.5286 609.26 70.1201 625.788 63.3306C646.184 54.9454 683.536 44.0611 716.734 37.1504" stroke="url(#paint6_linear_2_3918)" stroke-miterlimit="10"/>
<path d="M5.43116 145.14C5.43116 145.14 43.6938 136.983 129.286 151.706C129.818 151.802 131.544 152.851 134.488 154.12C146.073 159.093 165.548 166.37 185.872 167.452C222.838 169.446 254.41 157.517 312.702 136.338C358.214 119.847 388.927 131.834 402.771 144.09C408.981 149.578 413.286 155.766 416.695 158.199C425.36 164.372 450.968 185.428 496.001 147.186C541.407 108.69 534.336 111.148 598.341 81.0572C601.719 80.6062 610.058 75.3944 626.089 68.9215C646.714 60.5963 685.266 49.6978 716.616 43.1817" stroke="url(#paint7_linear_2_3918)" stroke-miterlimit="10"/>
<path d="M5.70221 150.528C5.70221 150.528 43.5686 142.314 128.95 156.69C129.555 156.792 131.28 157.806 134.173 158.985C146.128 163.893 165.493 170.711 185.485 171.691C223.353 173.584 254.716 161.477 311.619 140.802C357.053 124.356 388.295 135.313 402.096 147.096C408.219 152.312 412.588 158.451 416.239 161.061C425.388 167.583 451.027 188.193 495.728 150.648C540.901 112.808 536.596 114.722 598.558 86.1719C602.42 85.6556 610.816 80.6506 626.349 74.4943C647.21 66.2237 686.962 55.3213 716.465 49.1844" stroke="url(#paint8_linear_2_3918)" stroke-miterlimit="10"/>
<path d="M5.97239 155.916C5.97239 155.916 43.4231 147.656 128.62 161.668C129.292 161.782 131.035 162.759 133.871 163.869C146.229 168.706 165.452 175.071 185.099 175.956C223.861 177.732 255.022 165.456 310.539 145.316C355.908 128.909 387.671 138.828 401.462 150.145C407.485 155.101 411.925 161.19 415.818 163.971C425.452 170.843 451.135 191.006 495.524 154.156C540.443 116.969 538.958 118.347 598.844 91.3388C603.189 90.7522 611.649 85.9589 626.684 80.1089C647.774 71.8882 688.727 60.9919 716.388 55.239" stroke="url(#paint9_linear_2_3918)" stroke-miterlimit="10"/>
<path d="M6.24288 161.289C6.24288 161.289 43.2439 152.97 128.263 166.638C129.029 166.758 130.763 167.694 133.542 168.73C146.303 173.486 165.415 179.38 184.692 180.192C224.369 181.856 255.308 169.416 309.437 149.792C354.735 133.424 387.027 142.313 400.767 153.163C406.69 157.847 411.201 163.892 415.343 166.845C425.467 174.065 451.162 193.782 495.272 157.622C539.938 121.107 541.259 121.931 599.082 96.4629C603.91 95.8162 612.435 91.2345 626.972 85.6909C648.3 77.5503 690.445 66.6453 716.258 61.2564" stroke="url(#paint10_linear_2_3918)" stroke-miterlimit="10"/>
<path d="M6.51434 166.692C6.51434 166.692 43.0789 158.313 127.927 171.631C128.767 171.763 130.506 172.652 133.228 173.621C146.451 178.286 165.348 183.736 184.32 184.461C224.897 186.003 255.622 173.4 308.357 154.296C353.59 137.967 386.402 145.807 400.12 156.208C405.943 160.626 410.518 166.616 414.909 169.746C425.517 177.316 451.249 196.591 495.047 161.117C539.459 125.253 539.349 118.011 599.334 101.616C604.432 100.224 613.242 96.544 627.26 91.2975C648.858 83.2252 692.169 72.2872 716.135 67.3031" stroke="url(#paint11_linear_2_3918)" stroke-miterlimit="10"/>
<path d="M6.78509 172.081C6.78509 172.081 42.9069 163.647 127.584 176.611C128.505 176.754 130.247 177.597 132.913 178.496C146.478 183.073 165.279 188.078 183.914 188.722C225.398 190.137 255.909 177.381 307.256 158.797C352.445 142.506 385.745 149.309 399.439 159.25C405.162 163.402 409.815 169.343 414.448 172.644C425.514 180.564 451.303 199.392 494.797 164.618C538.968 129.412 542.078 122.166 599.593 106.76C605.165 105.267 614.055 101.844 627.568 96.8939C649.39 88.8973 693.899 77.9349 716.031 73.3294" stroke="url(#paint12_linear_2_3918)" stroke-miterlimit="10"/>
<path d="M7.05557 177.468C7.05557 177.468 42.721 168.976 127.281 181.592C128.275 181.742 129.995 182.54 132.631 183.37C146.651 187.842 165.263 192.411 183.553 192.96C225.944 194.242 256.234 181.339 306.2 163.269C351.298 147.019 385.126 152.787 398.83 162.262C404.447 166.149 409.176 172.04 414.052 175.513C425.635 183.781 451.396 202.164 494.611 168.085C538.475 133.528 544.801 126.326 599.851 111.897C605.906 110.315 614.881 107.147 627.869 102.485C649.941 94.5677 695.636 83.5815 715.921 79.3604" stroke="url(#paint13_linear_2_3918)" stroke-miterlimit="10"/>
<path d="M7.32631 182.856C7.32631 182.856 42.5354 174.305 126.904 186.568C127.979 186.724 129.743 187.474 132.289 188.241C146.736 192.595 165.174 196.737 183.134 197.211C226.43 198.346 256.5 185.306 305.079 167.76C350.105 151.549 384.435 156.29 398.116 165.291C403.632 168.916 408.433 174.752 413.55 178.403C425.624 187.004 451.443 204.955 494.319 171.568C537.956 137.662 547.503 130.486 600.102 117.031C606.633 115.362 615.688 112.452 628.163 108.076C650.493 100.243 697.36 89.2238 715.803 85.3868" stroke="url(#paint14_linear_2_3918)" stroke-miterlimit="10"/>
<path d="M7.59706 188.244C7.59706 188.244 42.3564 179.633 126.581 191.561C127.73 191.723 129.506 192.437 131.994 193.125C146.875 197.349 165.145 201.076 182.761 201.47C226.964 202.456 256.827 189.284 303.979 172.26C348.94 156.093 383.772 159.806 397.449 168.332C402.845 171.697 407.736 177.477 413.096 181.305C425.661 190.265 451.504 207.754 494.068 175.063C537.471 141.819 550.2 134.663 600.348 122.184C609.901 119.724 619.29 116.879 628.477 113.661C651.059 105.928 699.103 94.8596 715.699 91.412" stroke="url(#paint15_linear_2_3918)" stroke-miterlimit="10"/>
<path d="M7.86708 193.637C7.86708 193.637 42.1496 184.959 126.224 196.536C127.452 196.704 129.245 197.356 131.631 197.998C146.965 202.077 165.042 205.404 182.32 205.723C227.429 206.551 257.039 193.273 302.883 176.74C347.799 160.616 383.121 163.328 396.805 171.336C402.089 174.447 407.07 180.161 412.679 184.165C425.716 193.495 451.595 210.528 493.848 178.543C536.991 145.956 552.909 138.824 600.625 127.317C610.182 125.028 619.581 122.336 628.777 119.253C651.63 111.618 700.839 100.502 715.588 97.4386" stroke="url(#paint16_linear_2_3918)" stroke-miterlimit="10"/>
<path d="M8.13973 199.046C8.13973 199.046 41.9459 190.309 125.882 201.535C127.191 201.709 128.995 202.309 131.345 202.892C147.131 206.81 165.027 209.747 181.956 209.991C227.996 210.656 257.4 197.245 301.81 181.249C346.636 165.186 382.432 166.846 396.147 174.407C401.318 177.258 406.383 182.916 412.233 187.093C425.767 196.751 451.672 213.352 493.619 182.048C536.5 150.098 555.586 142.991 600.883 132.439C610.445 130.33 619.857 127.808 629.074 124.885C652.194 117.37 702.56 106.19 715.474 103.506" stroke="url(#paint17_linear_2_3918)" stroke-miterlimit="10"/>
<path d="M8.40919 204.413C8.40919 204.413 41.7322 195.614 125.545 206.498C126.927 206.674 128.742 207.223 131.029 207.757C147.266 211.494 164.964 214.063 181.569 214.236C228.494 214.728 257.699 201.205 300.722 185.744C345.475 169.685 381.749 170.374 395.466 177.444C400.511 180.045 405.672 185.627 411.765 189.986C425.783 199.993 451.752 216.147 493.36 185.539C535.995 154.241 558.238 147.196 601.117 137.624C609.609 135.73 618.978 133.76 629.362 130.482C652.754 123.092 704.277 111.838 715.343 109.538" stroke="url(#paint18_linear_2_3918)" stroke-miterlimit="10"/>
<path d="M8.67998 209.801C8.67998 209.801 41.5336 200.949 125.215 211.476C126.678 211.659 128.509 212.15 130.727 212.622C147.427 216.161 164.927 218.371 181.188 218.475C229.017 218.784 258.004 205.164 299.639 190.207C344.329 174.203 381.072 173.886 394.81 180.444C399.742 182.8 404.994 188.321 411.329 192.847C425.851 203.202 451.804 218.911 493.147 188.993C535.509 158.378 560.892 151.328 601.4 142.735C610.392 140.826 619.838 139.062 629.688 136.046C653.374 128.779 706.018 117.439 715.238 115.543" stroke="url(#paint19_linear_2_3918)" stroke-miterlimit="10"/>
<path d="M8.95047 215.189C8.95047 215.189 41.2937 206.264 124.865 216.455C126.401 216.644 128.23 217.084 130.398 217.497C147.56 220.814 164.857 222.691 180.782 222.73C229.521 222.839 258.29 209.118 298.538 194.697C343.163 178.731 380.35 177.431 394.135 183.475C398.908 185.583 404.283 191.037 410.867 195.734C425.86 206.439 451.857 221.701 492.882 192.478C535.05 162.518 563.51 155.528 601.658 147.878C611.164 145.968 620.68 144.401 630.016 141.64C653.977 134.549 707.763 123.105 715.174 121.571" stroke="url(#paint20_linear_2_3918)" stroke-miterlimit="10"/>
<path d="M9.22049 220.577C9.22049 220.577 41.067 211.586 124.521 221.435C126.137 221.625 127.99 222.002 130.082 222.368C147.712 225.436 164.807 227.007 180.394 226.976C230.037 226.886 258.589 213.098 297.449 199.182C341.989 183.256 379.654 180.991 393.493 186.5C398.174 188.367 403.612 193.746 410.437 198.616C425.922 209.669 451.95 224.485 492.663 195.958C534.53 166.653 566.107 159.716 601.895 153.012C611.909 151.139 621.487 149.737 630.276 147.229C654.539 140.317 709.493 128.748 715.022 127.595" stroke="url(#paint21_linear_2_3918)" stroke-miterlimit="10"/>
<path d="M9.492 225.964C9.492 225.964 40.8351 216.906 124.199 226.417C125.895 226.613 127.758 226.934 129.788 227.246C147.891 230.04 164.771 231.325 179.996 231.235C230.548 230.931 258.883 217.078 296.355 203.676C340.838 187.794 378.942 184.57 392.806 189.536C397.355 191.165 402.896 196.462 409.97 201.508C425.938 212.905 451.991 227.28 492.393 199.449C534.02 170.8 568.619 163.906 602.12 158.131C612.651 156.323 622.29 155.072 630.524 152.806C655.084 146.099 711.17 134.376 714.859 133.608" stroke="url(#paint22_linear_2_3918)" stroke-miterlimit="10"/>
<path d="M9.76218 231.354C9.76218 231.354 40.5885 222.229 123.842 231.403C125.618 231.595 127.485 231.859 129.453 232.144C148.021 234.628 164.702 235.662 179.63 235.506C231.084 234.967 259.21 221.068 295.288 208.186C339.705 192.343 378.256 188.187 392.165 192.577C396.609 193.965 402.206 199.198 409.541 204.395C425.994 216.142 452.084 230.074 492.147 202.931C533.521 174.944 571.15 168.118 602.366 163.301C613.422 161.59 623.112 160.433 630.839 158.423C655.711 151.951 712.908 140.05 714.756 139.665" stroke="url(#paint23_linear_2_3918)" stroke-miterlimit="10"/>
<path d="M10.0327 236.742C10.0327 236.742 41.7084 227.14 129.137 236.999C216.565 246.858 249.846 228.459 294.199 212.655C338.552 196.852 377.55 191.788 391.503 195.593C405.456 199.399 434.4 244.641 491.915 206.416C549.43 168.191 605.94 170.217 631.14 164.02C656.339 157.823 714.645 145.697 714.645 145.697" stroke="url(#paint24_linear_2_3918)" stroke-miterlimit="10"/>
<path d="M9.76666 231.445C9.76666 231.445 48.3832 224.493 130.203 231.022C212.024 237.551 249.142 220.561 292.454 207.525C335.766 194.49 377.274 189.484 393.303 191.073C409.332 192.661 441.347 231.626 498.554 197.877C555.76 164.129 608.72 167.54 635.871 160.513C663.022 153.487 717.345 140.103 717.345 140.103" stroke="url(#paint25_linear_2_3918)" stroke-miterlimit="10"/>
<path d="M9.50106 226.144C9.50106 226.144 55.0517 221.84 131.269 225.019C207.487 228.198 248.458 212.631 290.72 202.323C332.982 192.016 377.022 187.108 395.127 186.48C413.231 185.852 448.339 218.554 505.19 189.273C562.041 159.992 611.483 164.787 640.593 156.941C669.703 149.095 720.035 134.438 720.035 134.438" stroke="url(#paint26_linear_2_3918)" stroke-miterlimit="10"/>
<path d="M9.23464 220.842C9.23464 220.842 61.7197 219.193 132.335 219.026C202.951 218.86 247.794 204.72 289.007 197.156C330.22 189.592 376.784 184.766 396.925 181.923C417.065 179.08 455.291 205.498 511.8 180.7C568.31 155.901 614.214 162.076 645.289 153.4C676.365 144.724 722.732 128.809 722.732 128.809" stroke="url(#paint27_linear_2_3918)" stroke-miterlimit="10"/>
<path d="M8.96797 215.541C8.96797 215.541 68.3607 216.547 133.407 213.034C198.454 209.521 247.083 196.807 287.267 192.005C327.452 187.204 376.533 182.426 398.783 177.375C421.032 172.323 462.296 192.455 518.464 172.14C574.632 151.824 617.031 159.367 650.032 149.868C683.033 140.368 725.41 123.186 725.41 123.186" stroke="url(#paint28_linear_2_3918)" stroke-miterlimit="10"/>
<path d="M8.7018 210.239C8.7018 210.239 75.0555 213.898 134.473 207.041C193.891 200.184 246.412 188.891 285.567 186.822C324.722 184.752 376.302 180.079 400.62 172.801C424.938 165.523 469.268 179.388 525.101 163.555C580.934 147.722 619.808 156.644 654.774 146.299C689.739 135.954 728.12 117.55 728.12 117.55" stroke="url(#paint29_linear_2_3918)" stroke-miterlimit="10"/>
<path d="M8.43564 204.938C8.43564 204.938 81.7304 211.251 135.539 201.049C189.348 190.847 245.727 180.971 283.821 181.656C321.914 182.341 376.025 177.74 402.425 168.245C428.825 158.75 476.239 166.322 531.732 154.987C587.224 143.652 622.565 153.928 659.484 142.779C696.403 131.63 730.805 111.917 730.805 111.917" stroke="url(#paint30_linear_2_3918)" stroke-miterlimit="10"/>
<path d="M8.16948 199.643C8.16948 199.643 88.3983 208.605 136.625 195.057C184.852 181.509 245.043 173.068 282.101 176.495C319.159 179.923 375.78 175.405 404.25 163.709C432.721 152.013 483.245 153.28 538.362 146.414C593.479 139.548 625.329 151.217 664.207 139.238C703.084 127.259 733.489 106.289 733.489 106.289" stroke="url(#paint31_linear_2_3918)" stroke-miterlimit="10"/>
<path d="M7.90306 194.341C7.90306 194.341 95.0783 205.931 137.658 189.071C180.237 172.21 244.326 165.154 280.334 171.325C316.343 177.496 375.556 173.058 406.067 159.131C436.579 145.204 490.184 140.225 545.018 137.828C599.853 135.432 628.126 148.487 668.93 135.696C709.733 122.904 736.18 100.659 736.18 100.659" stroke="url(#paint32_linear_2_3918)" stroke-miterlimit="10"/>
<path d="M7.63664 189.04C7.63664 189.04 101.734 203.306 138.737 183.078C175.74 162.851 243.655 157.239 278.621 166.158C313.588 175.077 375.258 170.72 407.872 154.575C440.486 138.43 497.176 127.173 551.609 129.272C606.043 131.372 630.89 145.766 673.646 132.155C716.402 118.544 738.871 95.031 738.871 95.031" stroke="url(#paint33_linear_2_3918)" stroke-miterlimit="10"/>
<path d="M7.37022 183.739C7.37022 183.739 108.402 200.658 139.803 177.086C171.203 153.513 243.01 149.323 276.935 160.989C310.859 172.656 375.054 168.377 409.736 150.011C444.419 131.644 504.161 114.116 558.286 120.696C612.411 127.277 633.635 143.07 678.369 128.618C723.103 114.166 741.562 89.402 741.562 89.402" stroke="url(#paint34_linear_2_3918)" stroke-miterlimit="10"/>
</g>
<defs>
<linearGradient id="paint0_linear_2_3918" x1="692.573" y1="-42.311" x2="4.48694" y2="25.4966" gradientUnits="userSpaceOnUse">
<stop stop-opacity="0"/>
<stop offset="0.0885417" stop-opacity="0.22"/>
<stop offset="0.265625" stop-opacity="0.38"/>
<stop offset="0.505208" stop-opacity="0.63"/>
<stop offset="0.760417" stop-opacity="0.31"/>
<stop offset="0.927083" stop-opacity="0.12"/>
<stop offset="1" stop-opacity="0"/>
</linearGradient>
<linearGradient id="paint1_linear_2_3918" x1="692.583" y1="-35.3141" x2="4.94189" y2="33.1832" gradientUnits="userSpaceOnUse">
<stop stop-opacity="0"/>
<stop offset="0.0885417" stop-opacity="0.22"/>
<stop offset="0.265625" stop-opacity="0.38"/>
<stop offset="0.505208" stop-opacity="0.63"/>
<stop offset="0.760417" stop-opacity="0.31"/>
<stop offset="0.927083" stop-opacity="0.12"/>
<stop offset="1" stop-opacity="0"/>
</linearGradient>
<linearGradient id="paint2_linear_2_3918" x1="692.514" y1="-28.3233" x2="5.40198" y2="40.8893" gradientUnits="userSpaceOnUse">
<stop stop-opacity="0"/>
<stop offset="0.0885417" stop-opacity="0.22"/>
<stop offset="0.265625" stop-opacity="0.38"/>
<stop offset="0.505208" stop-opacity="0.63"/>
<stop offset="0.760417" stop-opacity="0.31"/>
<stop offset="0.927083" stop-opacity="0.12"/>
<stop offset="1" stop-opacity="0"/>
</linearGradient>
<linearGradient id="paint3_linear_2_3918" x1="692.427" y1="-21.3" x2="5.86986" y2="48.6601" gradientUnits="userSpaceOnUse">
<stop stop-opacity="0"/>
<stop offset="0.0885417" stop-opacity="0.22"/>
<stop offset="0.265625" stop-opacity="0.38"/>
<stop offset="0.505208" stop-opacity="0.63"/>
<stop offset="0.760417" stop-opacity="0.31"/>
<stop offset="0.927083" stop-opacity="0.12"/>
<stop offset="1" stop-opacity="0"/>
</linearGradient>
<linearGradient id="paint4_linear_2_3918" x1="692.392" y1="-14.2818" x2="6.3459" y2="56.4685" gradientUnits="userSpaceOnUse">
<stop stop-opacity="0"/>
<stop offset="0.0885417" stop-opacity="0.22"/>
<stop offset="0.265625" stop-opacity="0.38"/>
<stop offset="0.505208" stop-opacity="0.63"/>
<stop offset="0.760417" stop-opacity="0.31"/>
<stop offset="0.927083" stop-opacity="0.12"/>
<stop offset="1" stop-opacity="0"/>
</linearGradient>
<linearGradient id="paint5_linear_2_3918" x1="692.327" y1="-7.24581" x2="6.832" y2="64.331" gradientUnits="userSpaceOnUse">
<stop stop-opacity="0"/>
<stop offset="0.0885417" stop-opacity="0.22"/>
<stop offset="0.265625" stop-opacity="0.38"/>
<stop offset="0.505208" stop-opacity="0.63"/>
<stop offset="0.760417" stop-opacity="0.31"/>
<stop offset="0.927083" stop-opacity="0.12"/>
<stop offset="1" stop-opacity="0"/>
</linearGradient>
<linearGradient id="paint6_linear_2_3918" x1="692.29" y1="-0.253102" x2="7.32456" y2="72.1961" gradientUnits="userSpaceOnUse">
<stop stop-opacity="0"/>
<stop offset="0.0885417" stop-opacity="0.22"/>
<stop offset="0.265625" stop-opacity="0.38"/>
<stop offset="0.505208" stop-opacity="0.63"/>
<stop offset="0.760417" stop-opacity="0.31"/>
<stop offset="0.927083" stop-opacity="0.12"/>
<stop offset="1" stop-opacity="0"/>
</linearGradient>
<linearGradient id="paint7_linear_2_3918" x1="692.236" y1="6.76171" x2="7.82819" y2="80.1279" gradientUnits="userSpaceOnUse">
<stop stop-opacity="0"/>
<stop offset="0.0885417" stop-opacity="0.22"/>
<stop offset="0.265625" stop-opacity="0.38"/>
<stop offset="0.505208" stop-opacity="0.63"/>
<stop offset="0.760417" stop-opacity="0.31"/>
<stop offset="0.927083" stop-opacity="0.12"/>
<stop offset="1" stop-opacity="0"/>
</linearGradient>
<linearGradient id="paint8_linear_2_3918" x1="692.148" y1="13.7461" x2="8.34089" y2="88.0719" gradientUnits="userSpaceOnUse">
<stop stop-opacity="0"/>
<stop offset="0.0885417" stop-opacity="0.22"/>
<stop offset="0.265625" stop-opacity="0.38"/>
<stop offset="0.505208" stop-opacity="0.63"/>
<stop offset="0.760417" stop-opacity="0.31"/>
<stop offset="0.927083" stop-opacity="0.12"/>
<stop offset="1" stop-opacity="0"/>
</linearGradient>
<linearGradient id="paint9_linear_2_3918" x1="692.133" y1="20.7841" x2="8.86968" y2="96.1368" gradientUnits="userSpaceOnUse">
<stop stop-opacity="0"/>
<stop offset="0.0885417" stop-opacity="0.22"/>
<stop offset="0.265625" stop-opacity="0.38"/>
<stop offset="0.505208" stop-opacity="0.63"/>
<stop offset="0.760417" stop-opacity="0.31"/>
<stop offset="0.927083" stop-opacity="0.12"/>
<stop offset="1" stop-opacity="0"/>
</linearGradient>
<linearGradient id="paint10_linear_2_3918" x1="692.065" y1="27.7849" x2="9.41009" y2="104.215" gradientUnits="userSpaceOnUse">
<stop stop-opacity="0"/>
<stop offset="0.0885417" stop-opacity="0.22"/>
<stop offset="0.265625" stop-opacity="0.38"/>
<stop offset="0.505208" stop-opacity="0.63"/>
<stop offset="0.760417" stop-opacity="0.31"/>
<stop offset="0.927083" stop-opacity="0.12"/>
<stop offset="1" stop-opacity="0"/>
</linearGradient>
<linearGradient id="paint11_linear_2_3918" x1="692.005" y1="34.8144" x2="9.96651" y2="112.384" gradientUnits="userSpaceOnUse">
<stop stop-opacity="0"/>
<stop offset="0.0885417" stop-opacity="0.22"/>
<stop offset="0.265625" stop-opacity="0.38"/>
<stop offset="0.505208" stop-opacity="0.63"/>
<stop offset="0.760417" stop-opacity="0.31"/>
<stop offset="0.927083" stop-opacity="0.12"/>
<stop offset="1" stop-opacity="0"/>
</linearGradient>
<linearGradient id="paint12_linear_2_3918" x1="691.963" y1="41.8181" x2="10.5377" y2="120.594" gradientUnits="userSpaceOnUse">
<stop stop-opacity="0"/>
<stop offset="0.0885417" stop-opacity="0.22"/>
<stop offset="0.265625" stop-opacity="0.38"/>
<stop offset="0.505208" stop-opacity="0.63"/>
<stop offset="0.760417" stop-opacity="0.31"/>
<stop offset="0.927083" stop-opacity="0.12"/>
<stop offset="1" stop-opacity="0"/>
</linearGradient>
<linearGradient id="paint13_linear_2_3918" x1="691.915" y1="48.837" x2="11.1307" y2="128.907" gradientUnits="userSpaceOnUse">
<stop stop-opacity="0"/>
<stop offset="0.0885417" stop-opacity="0.22"/>
<stop offset="0.265625" stop-opacity="0.38"/>
<stop offset="0.505208" stop-opacity="0.63"/>
<stop offset="0.760417" stop-opacity="0.31"/>
<stop offset="0.927083" stop-opacity="0.12"/>
<stop offset="1" stop-opacity="0"/>
</linearGradient>
<linearGradient id="paint14_linear_2_3918" x1="691.861" y1="55.8462" x2="11.7431" y2="137.284" gradientUnits="userSpaceOnUse">
<stop stop-opacity="0"/>
<stop offset="0.0885417" stop-opacity="0.22"/>
<stop offset="0.265625" stop-opacity="0.38"/>
<stop offset="0.505208" stop-opacity="0.63"/>
<stop offset="0.760417" stop-opacity="0.31"/>
<stop offset="0.927083" stop-opacity="0.12"/>
<stop offset="1" stop-opacity="0"/>
</linearGradient>
<linearGradient id="paint15_linear_2_3918" x1="691.818" y1="62.8473" x2="12.3771" y2="145.735" gradientUnits="userSpaceOnUse">
<stop stop-opacity="0"/>
<stop offset="0.0885417" stop-opacity="0.22"/>
<stop offset="0.265625" stop-opacity="0.38"/>
<stop offset="0.505208" stop-opacity="0.63"/>
<stop offset="0.760417" stop-opacity="0.31"/>
<stop offset="0.927083" stop-opacity="0.12"/>
<stop offset="1" stop-opacity="0"/>
</linearGradient>
<linearGradient id="paint16_linear_2_3918" x1="691.769" y1="69.8582" x2="13.0398" y2="154.307" gradientUnits="userSpaceOnUse">
<stop stop-opacity="0"/>
<stop offset="0.0885417" stop-opacity="0.22"/>
<stop offset="0.265625" stop-opacity="0.38"/>
<stop offset="0.505208" stop-opacity="0.63"/>
<stop offset="0.760417" stop-opacity="0.31"/>
<stop offset="0.927083" stop-opacity="0.12"/>
<stop offset="1" stop-opacity="0"/>
</linearGradient>
<linearGradient id="paint17_linear_2_3918" x1="691.718" y1="76.9099" x2="13.737" y2="163.03" gradientUnits="userSpaceOnUse">
<stop stop-opacity="0"/>
<stop offset="0.0885417" stop-opacity="0.22"/>
<stop offset="0.265625" stop-opacity="0.38"/>
<stop offset="0.505208" stop-opacity="0.63"/>
<stop offset="0.760417" stop-opacity="0.31"/>
<stop offset="0.927083" stop-opacity="0.12"/>
<stop offset="1" stop-opacity="0"/>
</linearGradient>
<linearGradient id="paint18_linear_2_3918" x1="691.65" y1="83.9227" x2="14.4637" y2="171.824" gradientUnits="userSpaceOnUse">
<stop stop-opacity="0"/>
<stop offset="0.0885417" stop-opacity="0.22"/>
<stop offset="0.265625" stop-opacity="0.38"/>
<stop offset="0.505208" stop-opacity="0.63"/>
<stop offset="0.760417" stop-opacity="0.31"/>
<stop offset="0.927083" stop-opacity="0.12"/>
<stop offset="1" stop-opacity="0"/>
</linearGradient>
<linearGradient id="paint19_linear_2_3918" x1="691.607" y1="90.9103" x2="15.2309" y2="180.737" gradientUnits="userSpaceOnUse">
<stop stop-opacity="0"/>
<stop offset="0.0885417" stop-opacity="0.22"/>
<stop offset="0.265625" stop-opacity="0.38"/>
<stop offset="0.505208" stop-opacity="0.63"/>
<stop offset="0.760417" stop-opacity="0.31"/>
<stop offset="0.927083" stop-opacity="0.12"/>
<stop offset="1" stop-opacity="0"/>
</linearGradient>
<linearGradient id="paint20_linear_2_3918" x1="691.601" y1="97.8589" x2="16.0117" y2="189.629" gradientUnits="userSpaceOnUse">
<stop stop-opacity="0"/>
<stop offset="0.0885417" stop-opacity="0.22"/>
<stop offset="0.265625" stop-opacity="0.38"/>
<stop offset="0.505208" stop-opacity="0.63"/>
<stop offset="0.760417" stop-opacity="0.31"/>
<stop offset="0.927083" stop-opacity="0.12"/>
<stop offset="1" stop-opacity="0"/>
</linearGradient>
<linearGradient id="paint21_linear_2_3918" x1="691.494" y1="104.49" x2="16.6465" y2="197.579" gradientUnits="userSpaceOnUse">
<stop stop-opacity="0"/>
<stop offset="0.0885417" stop-opacity="0.22"/>
<stop offset="0.265625" stop-opacity="0.38"/>
<stop offset="0.505208" stop-opacity="0.63"/>
<stop offset="0.760417" stop-opacity="0.31"/>
<stop offset="0.927083" stop-opacity="0.12"/>
<stop offset="1" stop-opacity="0"/>
</linearGradient>
<linearGradient id="paint22_linear_2_3918" x1="691.375" y1="111.102" x2="17.2983" y2="205.553" gradientUnits="userSpaceOnUse">
<stop stop-opacity="0"/>
<stop offset="0.0885417" stop-opacity="0.22"/>
<stop offset="0.265625" stop-opacity="0.38"/>
<stop offset="0.505208" stop-opacity="0.63"/>
<stop offset="0.760417" stop-opacity="0.31"/>
<stop offset="0.927083" stop-opacity="0.12"/>
<stop offset="1" stop-opacity="0"/>
</linearGradient>
<linearGradient id="paint23_linear_2_3918" x1="691.316" y1="117.772" x2="17.9846" y2="213.701" gradientUnits="userSpaceOnUse">
<stop stop-opacity="0"/>
<stop offset="0.0885417" stop-opacity="0.22"/>
<stop offset="0.265625" stop-opacity="0.38"/>
<stop offset="0.505208" stop-opacity="0.63"/>
<stop offset="0.760417" stop-opacity="0.31"/>
<stop offset="0.927083" stop-opacity="0.12"/>
<stop offset="1" stop-opacity="0"/>
</linearGradient>
<linearGradient id="paint24_linear_2_3918" x1="691.249" y1="124.418" x2="18.6987" y2="221.912" gradientUnits="userSpaceOnUse">
<stop stop-opacity="0"/>
<stop offset="0.0885417" stop-opacity="0.22"/>
<stop offset="0.265625" stop-opacity="0.38"/>
<stop offset="0.505208" stop-opacity="0.63"/>
<stop offset="0.760417" stop-opacity="0.31"/>
<stop offset="0.927083" stop-opacity="0.12"/>
<stop offset="1" stop-opacity="0"/>
</linearGradient>
<linearGradient id="paint25_linear_2_3918" x1="693.893" y1="119.588" x2="19.1185" y2="219.938" gradientUnits="userSpaceOnUse">
<stop stop-opacity="0"/>
<stop offset="0.0885417" stop-opacity="0.22"/>
<stop offset="0.265625" stop-opacity="0.38"/>
<stop offset="0.505208" stop-opacity="0.63"/>
<stop offset="0.760417" stop-opacity="0.31"/>
<stop offset="0.927083" stop-opacity="0.12"/>
<stop offset="1" stop-opacity="0"/>
</linearGradient>
<linearGradient id="paint26_linear_2_3918" x1="696.525" y1="114.624" x2="19.5481" y2="217.817" gradientUnits="userSpaceOnUse">
<stop stop-opacity="0"/>
<stop offset="0.0885417" stop-opacity="0.22"/>
<stop offset="0.265625" stop-opacity="0.38"/>
<stop offset="0.505208" stop-opacity="0.63"/>
<stop offset="0.760417" stop-opacity="0.31"/>
<stop offset="0.927083" stop-opacity="0.12"/>
<stop offset="1" stop-opacity="0"/>
</linearGradient>
<linearGradient id="paint27_linear_2_3918" x1="699.159" y1="109.598" x2="19.9526" y2="215.485" gradientUnits="userSpaceOnUse">
<stop stop-opacity="0"/>
<stop offset="0.0885417" stop-opacity="0.22"/>
<stop offset="0.265625" stop-opacity="0.38"/>
<stop offset="0.505208" stop-opacity="0.63"/>
<stop offset="0.760417" stop-opacity="0.31"/>
<stop offset="0.927083" stop-opacity="0.12"/>
<stop offset="1" stop-opacity="0"/>
</linearGradient>
<linearGradient id="paint28_linear_2_3918" x1="701.761" y1="104.324" x2="20.1523" y2="212.135" gradientUnits="userSpaceOnUse">
<stop stop-opacity="0"/>
<stop offset="0.0885417" stop-opacity="0.22"/>
<stop offset="0.265625" stop-opacity="0.38"/>
<stop offset="0.505208" stop-opacity="0.63"/>
<stop offset="0.760417" stop-opacity="0.31"/>
<stop offset="0.927083" stop-opacity="0.12"/>
<stop offset="1" stop-opacity="0"/>
</linearGradient>
<linearGradient id="paint29_linear_2_3918" x1="704.365" y1="98.4548" x2="19.7798" y2="206.165" gradientUnits="userSpaceOnUse">
<stop stop-opacity="0"/>
<stop offset="0.0885417" stop-opacity="0.22"/>
<stop offset="0.265625" stop-opacity="0.38"/>
<stop offset="0.505208" stop-opacity="0.63"/>
<stop offset="0.760417" stop-opacity="0.31"/>
<stop offset="0.927083" stop-opacity="0.12"/>
<stop offset="1" stop-opacity="0"/>
</linearGradient>
<linearGradient id="paint30_linear_2_3918" x1="706.937" y1="92.433" x2="19.2614" y2="199.517" gradientUnits="userSpaceOnUse">
<stop stop-opacity="0"/>
<stop offset="0.0885417" stop-opacity="0.22"/>
<stop offset="0.265625" stop-opacity="0.38"/>
<stop offset="0.505208" stop-opacity="0.63"/>
<stop offset="0.760417" stop-opacity="0.31"/>
<stop offset="0.927083" stop-opacity="0.12"/>
<stop offset="1" stop-opacity="0"/>
</linearGradient>
<linearGradient id="paint31_linear_2_3918" x1="709.507" y1="86.388" x2="18.728" y2="192.78" gradientUnits="userSpaceOnUse">
<stop stop-opacity="0"/>
<stop offset="0.0885417" stop-opacity="0.22"/>
<stop offset="0.265625" stop-opacity="0.38"/>
<stop offset="0.505208" stop-opacity="0.63"/>
<stop offset="0.760417" stop-opacity="0.31"/>
<stop offset="0.927083" stop-opacity="0.12"/>
<stop offset="1" stop-opacity="0"/>
</linearGradient>
<linearGradient id="paint32_linear_2_3918" x1="712.083" y1="80.3336" x2="18.2011" y2="186.045" gradientUnits="userSpaceOnUse">
<stop stop-opacity="0"/>
<stop offset="0.0885417" stop-opacity="0.22"/>
<stop offset="0.265625" stop-opacity="0.38"/>
<stop offset="0.505208" stop-opacity="0.63"/>
<stop offset="0.760417" stop-opacity="0.31"/>
<stop offset="0.927083" stop-opacity="0.12"/>
<stop offset="1" stop-opacity="0"/>
</linearGradient>
<linearGradient id="paint33_linear_2_3918" x1="714.658" y1="74.2688" x2="17.6768" y2="179.298" gradientUnits="userSpaceOnUse">
<stop stop-opacity="0"/>
<stop offset="0.0885417" stop-opacity="0.22"/>
<stop offset="0.265625" stop-opacity="0.38"/>
<stop offset="0.505208" stop-opacity="0.63"/>
<stop offset="0.760417" stop-opacity="0.31"/>
<stop offset="0.927083" stop-opacity="0.12"/>
<stop offset="1" stop-opacity="0"/>
</linearGradient>
<linearGradient id="paint34_linear_2_3918" x1="717.233" y1="68.2035" x2="17.165" y2="172.584" gradientUnits="userSpaceOnUse">
<stop stop-opacity="0"/>
<stop offset="0.0885417" stop-opacity="0.22"/>
<stop offset="0.265625" stop-opacity="0.38"/>
<stop offset="0.505208" stop-opacity="0.63"/>
<stop offset="0.760417" stop-opacity="0.31"/>
<stop offset="0.927083" stop-opacity="0.12"/>
<stop offset="1" stop-opacity="0"/>
</linearGradient>
</defs>
</svg>
